<svg width="24" height="24" viewBox="0 0 24 24" fill="none" xmlns="http://www.w3.org/2000/svg">
<path fill-rule="evenodd" clip-rule="evenodd" d="M12 22C17.5228 22 22 17.5228 22 12C22 6.47715 17.5228 2 12 2C6.47715 2 2 6.47715 2 12C2 17.5228 6.47715 22 12 22ZM11.7436 10.9121L14.2766 8.37915C14.577 8.07875 15.064 8.07875 15.3644 8.37915C15.6648 8.67955 15.6648 9.16661 15.3644 9.46701L12.8314 12L15.3644 14.533C15.6648 14.8334 15.6648 15.3204 15.3644 15.6208C15.064 15.9213 14.577 15.9213 14.2766 15.6208L11.7436 13.0878L9.21057 15.6208C8.91017 15.9213 8.42312 15.9213 8.12272 15.6208C7.82231 15.3204 7.82231 14.8334 8.12272 14.533L10.6557 12L8.12274 9.46701C7.82233 9.16661 7.82233 8.67955 8.12274 8.37915C8.42314 8.07875 8.9102 8.07875 9.2106 8.37915L11.7436 10.9121ZM3.53846 12C3.53846 16.6732 7.32682 20.4616 12 20.4616C16.6732 20.4616 20.4616 16.6732 20.4616 12C20.4616 7.32682 16.6732 3.53846 12 3.53846C7.32682 3.53846 3.53846 7.32682 3.53846 12Z" fill="#242424"/>
</svg>
